<svg id="katman_1" data-name="katman 1" xmlns="http://www.w3.org/2000/svg" viewBox="0 0 412.51 140.19"><defs><style>.cls-1{fill:#142e1c;}.cls-2,.cls-3{fill:none;stroke:#142e1c;stroke-miterlimit:10;}.cls-2{stroke-width:1.16px;}.cls-3{stroke-width:1.12px;}</style></defs><path class="cls-1" d="M260.67,166.33V119.61h.07L285.68,155l-3.78-.85,24.88-34.52h.13v46.72h-8.85V139.55l.55,4.57-15.19,21.59h-.12l-15.61-21.59,1.52-4.2v26.41Z" transform="translate(-67.97 -77.15)"/><path class="cls-1" d="M315.75,143.94a22.11,22.11,0,0,1,1.77-8.78,23.45,23.45,0,0,1,4.91-7.35,23.08,23.08,0,0,1,7.29-5,22.41,22.41,0,0,1,17.74,0,23.8,23.8,0,0,1,7.35,5,23.21,23.21,0,0,1,5,7.35,21.79,21.79,0,0,1,1.8,8.78,22.17,22.17,0,0,1-1.8,8.91,22.58,22.58,0,0,1-5,7.28,23.28,23.28,0,0,1-7.35,4.91,23.11,23.11,0,0,1-17.74,0,22.58,22.58,0,0,1-7.29-4.91,22.81,22.81,0,0,1-4.91-7.28A22.49,22.49,0,0,1,315.75,143.94Zm9.15,0A14.36,14.36,0,0,0,329,154.1a13.92,13.92,0,0,0,4.46,3.08,13.7,13.7,0,0,0,5.52,1.09,12.87,12.87,0,0,0,9.63-4.17,14.73,14.73,0,0,0,2.87-4.58,15.1,15.1,0,0,0-3-15.86,13.74,13.74,0,0,0-15.22-3.08,13.74,13.74,0,0,0-4.39,3.08,14.21,14.21,0,0,0-2.93,4.61A15.32,15.32,0,0,0,324.9,143.94Z" transform="translate(-67.97 -77.15)"/><path class="cls-1" d="M383.63,121.44q7,0,11.16,2.83t4.15,8.45a11.37,11.37,0,0,1-2,6.92,12.37,12.37,0,0,1-5.55,4.15,22,22,0,0,1-8,1.37l-1.41-4.76a29.27,29.27,0,0,1,9.85,1.53,15.83,15.83,0,0,1,6.8,4.36,9.92,9.92,0,0,1,2.5,6.8,13.27,13.27,0,0,1-1.31,6.19,11.14,11.14,0,0,1-3.53,4.09,15.16,15.16,0,0,1-5,2.25,23.66,23.66,0,0,1-5.79.71H370.46V121.44Zm1,18.35a4.61,4.61,0,0,0,3.87-1.58,5.69,5.69,0,0,0,1.25-3.6,4.08,4.08,0,0,0-1.55-3.48,6.86,6.86,0,0,0-4.18-1.16H379.3v9.82Zm.3,18.3a11.25,11.25,0,0,0,3.54-.52,5.16,5.16,0,0,0,2.5-1.64,4.38,4.38,0,0,0,.92-2.84,3.83,3.83,0,0,0-1.1-3,6.08,6.08,0,0,0-2.84-1.4,16,16,0,0,0-3.63-.4H379.3v9.76Z" transform="translate(-67.97 -77.15)"/><path class="cls-1" d="M409.92,121.44h30.61V130H418.76v9.58H438v8.54H418.76v9.7h22.63v8.54H409.92Z" transform="translate(-67.97 -77.15)"/><path class="cls-1" d="M450.54,121.44h8.84v36.35h21.1v8.54H450.54Z" transform="translate(-67.97 -77.15)"/><path class="cls-1" d="M283.48,187l0,.49,0-.12,4.9-4.83h.88l-4.11,4.06,4.57,5.85h-.87l-4.2-5.42-1.2,1.15v4.27h-.69v-9.91h.69Z" transform="translate(-67.97 -77.15)"/><path class="cls-1" d="M291.46,185a.43.43,0,0,1,.15-.33.48.48,0,0,1,.34-.13.44.44,0,0,1,.33.13.45.45,0,0,1,.14.33.46.46,0,0,1-.14.34.44.44,0,0,1-.33.13.45.45,0,0,1-.34-.14A.43.43,0,0,1,291.46,185Zm.14,2h.65v5.46h-.65Z" transform="translate(-67.97 -77.15)"/><path class="cls-1" d="M296,192.59a3.22,3.22,0,0,1-1-.17,1.91,1.91,0,0,1-.84-.57l.31-.43a2.18,2.18,0,0,0,.66.46,1.92,1.92,0,0,0,.82.18,2,2,0,0,0,.61-.09.92.92,0,0,0,.65-.92.82.82,0,0,0-.22-.6,1.66,1.66,0,0,0-.55-.34,5.55,5.55,0,0,0-.69-.24,2.86,2.86,0,0,1-1-.53,1.19,1.19,0,0,1-.38-1,1.42,1.42,0,0,1,.21-.78,1.47,1.47,0,0,1,.6-.53,1.93,1.93,0,0,1,.85-.19,2.87,2.87,0,0,1,.86.14,2,2,0,0,1,.77.48l-.29.46a1.07,1.07,0,0,0-.6-.42,2.49,2.49,0,0,0-.65-.13,1.53,1.53,0,0,0-.49.1,1.09,1.09,0,0,0-.43.29.67.67,0,0,0-.18.49.77.77,0,0,0,.18.53,1.52,1.52,0,0,0,.47.33l.59.23a7.71,7.71,0,0,1,.77.3,1.77,1.77,0,0,1,.58.46,1.15,1.15,0,0,1,.23.76,1.74,1.74,0,0,1-.21.86,1.39,1.39,0,0,1-.62.6A2.14,2.14,0,0,1,296,192.59ZM295,194.85a1.26,1.26,0,0,0,.41.26,1.63,1.63,0,0,0,.61.1,1.51,1.51,0,0,0,.82-.2.63.63,0,0,0,.32-.56.73.73,0,0,0-.25-.56,1.12,1.12,0,0,0-.81-.24,2.5,2.5,0,0,0-.51.06,2.13,2.13,0,0,0-.46.14l-.21-.35,1-1.09.51.1-.94,1.14-.24-.15a1.29,1.29,0,0,1,.45-.16,2.26,2.26,0,0,1,.56-.07,1.79,1.79,0,0,1,1.12.29,1,1,0,0,1,.4.87,1,1,0,0,1-.22.67,1.26,1.26,0,0,1-.6.39,2.47,2.47,0,0,1-.84.13,2.13,2.13,0,0,1-.78-.13,1.79,1.79,0,0,1-.55-.3Z" transform="translate(-67.97 -77.15)"/><path class="cls-1" d="M299.73,185a.44.44,0,0,1,.16-.33.48.48,0,0,1,.33-.13.48.48,0,0,1,.34.13.45.45,0,0,1,.14.33.46.46,0,0,1-.14.34.48.48,0,0,1-.34.13.45.45,0,0,1-.33-.14A.44.44,0,0,1,299.73,185Zm.14,2h.66v5.46h-.66Z" transform="translate(-67.97 -77.15)"/><path class="cls-1" d="M304.75,192.53,302.16,187h.74l2.36,5.16Zm-1.23,2.57,3.56-8.08h.64l-3.52,8.08Z" transform="translate(-67.97 -77.15)"/><path class="cls-1" d="M311.66,192.59a3,3,0,0,1-1.51-.38,2.73,2.73,0,0,1-1-1,3,3,0,0,1-.37-1.46,2.76,2.76,0,0,1,.39-1.45,3,3,0,0,1,1.06-1.05,2.84,2.84,0,0,1,1.47-.39,2.43,2.43,0,0,1,1.64.57,3.27,3.27,0,0,1,1,1.49l-4.78,1.85-.19-.48,4.37-1.7-.14.19a2.59,2.59,0,0,0-.72-1,1.76,1.76,0,0,0-1.18-.4,2.15,2.15,0,0,0-1.13.3,2.31,2.31,0,0,0-1.1,2,2.35,2.35,0,0,0,.28,1.14,2.21,2.21,0,0,0,2,1.18,2.27,2.27,0,0,0,.86-.17,2.93,2.93,0,0,0,.73-.43l.34.47a3.27,3.27,0,0,1-.9.5A2.91,2.91,0,0,1,311.66,192.59Z" transform="translate(-67.97 -77.15)"/><path class="cls-1" d="M320.08,187.54a5,5,0,0,1,.39-2,5.18,5.18,0,0,1,2.7-2.72,4.94,4.94,0,0,1,2-.4,5,5,0,0,1,2,.4,5.15,5.15,0,0,1,2.71,2.72,5,5,0,0,1,0,3.93,5.21,5.21,0,0,1-1.09,1.61,5.08,5.08,0,0,1-1.62,1.09,5,5,0,0,1-2,.39,5.11,5.11,0,0,1-2-.38,4.85,4.85,0,0,1-1.61-1.06,4.79,4.79,0,0,1-1.09-1.6A5.14,5.14,0,0,1,320.08,187.54Zm.69,0a4.41,4.41,0,0,0,.34,1.7,4.29,4.29,0,0,0,.93,1.4,4.67,4.67,0,0,0,1.39.94,4.18,4.18,0,0,0,1.69.34,4.25,4.25,0,0,0,1.71-.34,4.37,4.37,0,0,0,2.34-2.34,4.47,4.47,0,0,0,0-3.42,4.47,4.47,0,0,0-2.34-2.37,4.2,4.2,0,0,0-1.7-.35,4.14,4.14,0,0,0-1.72.36,4.36,4.36,0,0,0-1.39,1,4.58,4.58,0,0,0-.92,1.41A4.44,4.44,0,0,0,320.77,187.55Zm2.81-6.55a.45.45,0,0,1,.32-.14.49.49,0,0,1,.33.14.45.45,0,0,1,.15.34.43.43,0,0,1-.15.33.49.49,0,0,1-.33.14.45.45,0,0,1-.32-.14.45.45,0,0,1-.14-.33A.48.48,0,0,1,323.58,181Zm2.44,0a.45.45,0,0,1,.32-.14.47.47,0,0,1,.32.14.45.45,0,0,1,.15.34.43.43,0,0,1-.15.33.47.47,0,0,1-.32.14.45.45,0,0,1-.32-.14.43.43,0,0,1-.15-.33A.45.45,0,0,1,326,181Z" transform="translate(-67.97 -77.15)"/><path class="cls-1" d="M332.54,187.56a1,1,0,0,1-.6-.17.72.72,0,0,1-.23-.62v-.27h.51v.17a.31.31,0,0,0,.12.26.6.6,0,0,0,.36.09h3.53l-3.55,5-.14-.14h3.63v.56h-4.51l3.59-5.1.14.18Z" transform="translate(-67.97 -77.15)"/><path class="cls-1" d="M340.42,192.59a3,3,0,0,1-1.51-.38,2.73,2.73,0,0,1-1-1,3,3,0,0,1-.37-1.46,2.76,2.76,0,0,1,.39-1.45,3,3,0,0,1,1.06-1.05,2.84,2.84,0,0,1,1.47-.39,2.43,2.43,0,0,1,1.64.57,3.27,3.27,0,0,1,1,1.49l-4.78,1.85-.19-.48,4.37-1.7-.14.19a2.59,2.59,0,0,0-.72-1,1.76,1.76,0,0,0-1.18-.4,2.15,2.15,0,0,0-1.13.3,2.31,2.31,0,0,0-1.1,2,2.35,2.35,0,0,0,.28,1.14,2.21,2.21,0,0,0,2,1.18,2.27,2.27,0,0,0,.86-.17,2.93,2.93,0,0,0,.73-.43l.34.47a3.27,3.27,0,0,1-.9.5A2.91,2.91,0,0,1,340.42,192.59Z" transform="translate(-67.97 -77.15)"/><path class="cls-1" d="M344.84,181.87h.66v10.61h-.66Z" transform="translate(-67.97 -77.15)"/><path class="cls-1" d="M353.3,187l0,.49,0-.12,4.9-4.83h.88L355,186.63l4.57,5.85h-.87l-4.2-5.42-1.2,1.15v4.27h-.7v-9.91h.7Z" transform="translate(-67.97 -77.15)"/><path class="cls-1" d="M361.27,185a.44.44,0,0,1,.16-.33.48.48,0,0,1,.33-.13.48.48,0,0,1,.34.13.45.45,0,0,1,.14.33.46.46,0,0,1-.14.34.48.48,0,0,1-.34.13.45.45,0,0,1-.33-.14A.44.44,0,0,1,361.27,185Zm.14,2h.66v5.46h-.66Z" transform="translate(-67.97 -77.15)"/><path class="cls-1" d="M365.84,192.59a3.22,3.22,0,0,1-1-.17,1.8,1.8,0,0,1-.84-.57l.31-.43a2,2,0,0,0,.66.46,1.92,1.92,0,0,0,.82.18,2.1,2.1,0,0,0,.61-.09.9.9,0,0,0,.64-.92.81.81,0,0,0-.21-.6,1.77,1.77,0,0,0-.55-.34,7,7,0,0,0-.69-.24,2.77,2.77,0,0,1-1-.53,1.19,1.19,0,0,1-.39-1,1.43,1.43,0,0,1,.22-.78,1.45,1.45,0,0,1,.59-.53,2,2,0,0,1,.86-.19,2.8,2.8,0,0,1,.85.14,2,2,0,0,1,.78.48l-.29.46a1.07,1.07,0,0,0-.6-.42,2.49,2.49,0,0,0-.65-.13,1.48,1.48,0,0,0-.49.1,1.21,1.21,0,0,0-.44.29.71.71,0,0,0-.17.49.77.77,0,0,0,.18.53,1.52,1.52,0,0,0,.47.33l.59.23a6.69,6.69,0,0,1,.76.3,1.71,1.71,0,0,1,.59.46,1.21,1.21,0,0,1,.23.76,1.74,1.74,0,0,1-.21.86,1.44,1.44,0,0,1-.62.6A2.16,2.16,0,0,1,365.84,192.59Zm-1.06,2.26a1.26,1.26,0,0,0,.41.26,1.59,1.59,0,0,0,.61.1,1.45,1.45,0,0,0,.81-.2.62.62,0,0,0,.33-.56.73.73,0,0,0-.25-.56,1.15,1.15,0,0,0-.81-.24,2.5,2.5,0,0,0-.51.06,2.45,2.45,0,0,0-.47.14l-.21-.35,1-1.09.5.1-.93,1.14-.24-.15a1.22,1.22,0,0,1,.45-.16,2.2,2.2,0,0,1,.56-.07,1.76,1.76,0,0,1,1.11.29,1,1,0,0,1,.41.87,1,1,0,0,1-.22.67,1.26,1.26,0,0,1-.6.39,2.55,2.55,0,0,1-.84.13,2.13,2.13,0,0,1-.78-.13,1.68,1.68,0,0,1-.55-.3Z" transform="translate(-67.97 -77.15)"/><path class="cls-1" d="M369.55,185a.41.41,0,0,1,.16-.33.48.48,0,0,1,.33-.13.48.48,0,0,1,.34.13.45.45,0,0,1,.14.33.46.46,0,0,1-.14.34.48.48,0,0,1-.34.13.45.45,0,0,1-.33-.14A.41.41,0,0,1,369.55,185Zm.14,2h.66v5.46h-.66Z" transform="translate(-67.97 -77.15)"/><path class="cls-1" d="M374.12,192.59a3.22,3.22,0,0,1-1-.17,1.8,1.8,0,0,1-.84-.57l.31-.43a2,2,0,0,0,.66.46,1.92,1.92,0,0,0,.82.18,2,2,0,0,0,.6-.09.89.89,0,0,0,.65-.92.81.81,0,0,0-.21-.6,1.77,1.77,0,0,0-.55-.34,7,7,0,0,0-.69-.24,2.77,2.77,0,0,1-1-.53,1.19,1.19,0,0,1-.39-1,1.35,1.35,0,0,1,.22-.78,1.45,1.45,0,0,1,.59-.53,2,2,0,0,1,.85-.19,2.82,2.82,0,0,1,.86.14,2,2,0,0,1,.78.48l-.3.46a1,1,0,0,0-.59-.42,2.57,2.57,0,0,0-.65-.13,1.48,1.48,0,0,0-.49.1,1.13,1.13,0,0,0-.44.29.71.71,0,0,0-.17.49.77.77,0,0,0,.18.53,1.52,1.52,0,0,0,.47.33l.59.23a6.69,6.69,0,0,1,.76.3,1.71,1.71,0,0,1,.59.46,1.21,1.21,0,0,1,.23.76,1.74,1.74,0,0,1-.21.86,1.44,1.44,0,0,1-.62.6A2.16,2.16,0,0,1,374.12,192.59Z" transform="translate(-67.97 -77.15)"/><path class="cls-1" d="M380.35,192.59a3,3,0,0,1-1.51-.38,2.73,2.73,0,0,1-1-1,2.88,2.88,0,0,1-.37-1.46,2.76,2.76,0,0,1,.39-1.45,2.89,2.89,0,0,1,1.06-1.05,2.84,2.84,0,0,1,1.47-.39,2.43,2.43,0,0,1,1.64.57,3.27,3.27,0,0,1,1,1.49l-4.78,1.85-.19-.48,4.37-1.7-.14.19a2.59,2.59,0,0,0-.72-1,1.78,1.78,0,0,0-1.18-.4,2.15,2.15,0,0,0-1.13.3,2.3,2.3,0,0,0-.81.83,2.26,2.26,0,0,0-.3,1.17,2.36,2.36,0,0,0,.29,1.14,2.28,2.28,0,0,0,.8.86,2.25,2.25,0,0,0,1.19.32,2.31,2.31,0,0,0,.86-.17,2.93,2.93,0,0,0,.73-.43l.34.47a3.27,3.27,0,0,1-.9.5A2.91,2.91,0,0,1,380.35,192.59Z" transform="translate(-67.97 -77.15)"/><path class="cls-1" d="M384.77,181.87h.66v10.61h-.66Z" transform="translate(-67.97 -77.15)"/><path class="cls-1" d="M392.77,187l.07,1.52-.1-.14a2.32,2.32,0,0,1,.93-1.12,2.56,2.56,0,0,1,1.42-.41,1.9,1.9,0,0,1,.83.17,1.58,1.58,0,0,1,.6.47,1.43,1.43,0,0,1,.27.7l-.08.08a2.08,2.08,0,0,1,.92-1.06,2.68,2.68,0,0,1,1.35-.36,1.73,1.73,0,0,1,1.25.45,1.64,1.64,0,0,1,.47,1.18v4H400v-3.84a1.31,1.31,0,0,0-.3-.83,1.21,1.21,0,0,0-.9-.37,1.84,1.84,0,0,0-1,.28,2.13,2.13,0,0,0-.75.74,2,2,0,0,0-.31,1v3h-.66v-3.84a1.27,1.27,0,0,0-.31-.83,1.21,1.21,0,0,0-.9-.37,1.92,1.92,0,0,0-1,.28,2.1,2.1,0,0,0-.75.76,2.16,2.16,0,0,0-.28,1.07v2.93h-.65V187Z" transform="translate(-67.97 -77.15)"/><path class="cls-1" d="M402.65,189.71a2.88,2.88,0,0,1,1.43-2.49,3.13,3.13,0,0,1,3,0,2.86,2.86,0,0,1,1.41,2.49,2.92,2.92,0,0,1-.38,1.46,2.88,2.88,0,0,1-1,1,3,3,0,0,1-1.5.38,2.93,2.93,0,0,1-1.48-.37,2.75,2.75,0,0,1-1-1A2.83,2.83,0,0,1,402.65,189.71Zm.66,0a2.28,2.28,0,0,0,.3,1.16,2.23,2.23,0,0,0,.81.83,2.25,2.25,0,0,0,2.28,0,2.23,2.23,0,0,0,.81-.83,2.28,2.28,0,0,0,.3-1.16,2.33,2.33,0,0,0-1.11-2,2.12,2.12,0,0,0-1.14-.31,2.06,2.06,0,0,0-1.15.33,2.39,2.39,0,0,0-.81.86A2.35,2.35,0,0,0,403.31,189.73Z" transform="translate(-67.97 -77.15)"/><path class="cls-1" d="M413.49,192.59a2.81,2.81,0,0,1-1.53-.43,2.69,2.69,0,0,1-1-1.09l.14-.38v1.79h-.66V181.87h.66v6.75l-.09-.36a2.39,2.39,0,0,1,1-1,3.12,3.12,0,0,1,1.54-.39,2.63,2.63,0,0,1,1.39.37,2.77,2.77,0,0,1,1,1,2.87,2.87,0,0,1,.37,1.47,3,3,0,0,1-.39,1.57,2.55,2.55,0,0,1-1,1A2.94,2.94,0,0,1,413.49,192.59Zm-.11-.57a2.32,2.32,0,0,0,1.2-.3,2,2,0,0,0,.79-.83,2.43,2.43,0,0,0,.28-1.19,2.36,2.36,0,0,0-.28-1.15,2.18,2.18,0,0,0-2-1.15,2.35,2.35,0,0,0-1.06.23,2.32,2.32,0,0,0-.8.65,2.15,2.15,0,0,0-.43.93v.85a2.05,2.05,0,0,0,.36,1,2.24,2.24,0,0,0,.81.71A2.22,2.22,0,0,0,413.38,192Z" transform="translate(-67.97 -77.15)"/><path class="cls-1" d="M418.14,185a.43.43,0,0,1,.15-.33.48.48,0,0,1,.34-.13.44.44,0,0,1,.33.13.45.45,0,0,1,.14.33.46.46,0,0,1-.14.34.44.44,0,0,1-.33.13.45.45,0,0,1-.34-.14A.43.43,0,0,1,418.14,185Zm.14,2h.65v5.46h-.65Z" transform="translate(-67.97 -77.15)"/><path class="cls-1" d="M421.42,181.87h.65v10.61h-.65Z" transform="translate(-67.97 -77.15)"/><path class="cls-1" d="M426.29,192.53,423.71,187h.74l2.36,5.16Zm-1.23,2.57,3.56-8.08h.64l-3.51,8.08Z" transform="translate(-67.97 -77.15)"/><path class="cls-1" d="M433.08,192.59a2.8,2.8,0,0,1-1.42-.36,2.6,2.6,0,0,1-1-1,3.27,3.27,0,0,1,0-3.06,2.62,2.62,0,0,1,1.07-1,3.24,3.24,0,0,1,1.52-.34,2.59,2.59,0,0,1,2.3,1.52l-.1.2.09-1.55h.58v5.46h-.65v-1.69l.14.25a1.72,1.72,0,0,1-.34.55,2.87,2.87,0,0,1-.58.5,2.91,2.91,0,0,1-.75.37A3.16,3.16,0,0,1,433.08,192.59Zm.13-.56a2.34,2.34,0,0,0,1.12-.26,2.13,2.13,0,0,0,.8-.72,2.19,2.19,0,0,0,.35-1.06v-.78a2.24,2.24,0,0,0-.44-.92,2.42,2.42,0,0,0-.81-.64,2.23,2.23,0,0,0-1-.24,2.19,2.19,0,0,0-1.13.29,2.1,2.1,0,0,0-.82.8,2.27,2.27,0,0,0-.31,1.21,2.23,2.23,0,0,0,.31,1.17,2.3,2.3,0,0,0,.83.84A2.16,2.16,0,0,0,433.21,192Z" transform="translate(-67.97 -77.15)"/><path class="cls-1" d="M107.15,198V102.74h.12l50.87,72.13-7.71-1.74,50.74-70.39h.25V198h-18V143.41l1.12,9.32-31,44h-.25l-31.84-44,3.11-8.58V198Z" transform="translate(-67.97 -77.15)"/><circle class="cls-2" cx="85.81" cy="72.68" r="66.92"/><line class="cls-2" x1="133.4" y1="134.52" x2="133.4" y2="0.4"/><line class="cls-2" x1="39.52" y1="0.4" x2="39.52" y2="137.36"/><path class="cls-2" d="M181.63,80.26" transform="translate(-67.97 -77.15)"/><path class="cls-2" d="M181.63,224" transform="translate(-67.97 -77.15)"/><path class="cls-2" d="M126.28,80.26" transform="translate(-67.97 -77.15)"/><path class="cls-2" d="M126.28,223.05" transform="translate(-67.97 -77.15)"/><line class="cls-2" x1="93.98" y1="132.2" x2="16.53" y2="25.35"/><line class="cls-2" x1="77.07" y1="132.2" x2="151.53" y2="26.35"/><line class="cls-2" x1="21.53" y1="0.35" x2="106.53" y2="121.35"/><line class="cls-2" x1="152.53" y1="0.35" x2="63.53" y2="120.35"/><line class="cls-2" x1="4.34" y1="120.12" x2="173.03" y2="121.4"/><line class="cls-2" y1="25.32" x2="173.03" y2="26.61"/><line class="cls-3" x1="205.69" y1="98.85" x2="387.19" y2="98.85"/></svg>